<?xml version="1.0" encoding="UTF-8" standalone="no"?>
<svg
   xmlns:dc="http://purl.org/dc/elements/1.1/"
   xmlns:cc="http://creativecommons.org/ns#"
   xmlns:rdf="http://www.w3.org/1999/02/22-rdf-syntax-ns#"
   xmlns:svg="http://www.w3.org/2000/svg"
   xmlns="http://www.w3.org/2000/svg"
   height="24"
   width="24"
   xml:space="preserve"
   viewBox="0 0 24 24"
   y="0px"
   x="0px"
   id="Capa_1"
   version="1.1"><metadata
     id="metadata4296"><rdf:RDF><cc:Work
         rdf:about=""><dc:format>image/svg+xml</dc:format><dc:type
           rdf:resource="http://purl.org/dc/dcmitype/StillImage" /><dc:title></dc:title></cc:Work></rdf:RDF></metadata><defs
     id="defs4294" /><g
     transform="translate(-42.576996,-37.702058)"
     id="g4262" /><g
     transform="translate(-42.576996,-37.702058)"
     id="g4264" /><g
     transform="translate(-42.576996,-37.702058)"
     id="g4266" /><g
     transform="translate(-42.576996,-37.702058)"
     id="g4268" /><g
     transform="translate(-42.576996,-37.702058)"
     id="g4270" /><g
     transform="translate(-42.576996,-37.702058)"
     id="g4272" /><g
     transform="translate(-42.576996,-37.702058)"
     id="g4274" /><g
     transform="translate(-42.576996,-37.702058)"
     id="g4276" /><g
     transform="translate(-42.576996,-37.702058)"
     id="g4278" /><g
     transform="translate(-42.576996,-37.702058)"
     id="g4280" /><g
     transform="translate(-42.576996,-37.702058)"
     id="g4282" /><g
     transform="translate(-42.576996,-37.702058)"
     id="g4284" /><g
     transform="translate(-42.576996,-37.702058)"
     id="g4286" /><g
     transform="translate(-42.576996,-37.702058)"
     id="g4288" /><g
     transform="translate(-42.576996,-37.702058)"
     id="g4290" /><path
     id="path5"
     d="M 11.822233,0.10512977 C 5.2050927,0.19342977 -0.08695725,5.6144298 0.00108275,12.212801 c 0.0886,6.59552 5.52466995,11.87391 12.14155025,11.78612 6.61585,-0.0888 11.90894,-5.50982 11.8209,-12.10767 -0.0886,-6.5960412 -5.52493,-11.87417123 -12.1413,-11.78612123 z m -0.0354,19.21955123 -0.0662,-0.001 c -1.01902,-0.0301 -1.7374403,-0.7787 -1.70853,-1.77972 0.0284,-0.98389 0.76427,-1.69817 1.74969,-1.69817 l 0.0591,10e-4 c 1.04742,0.0309 1.75777,0.77194 1.72833,1.8018 -0.0292,0.98674 -0.75359,1.67609 -1.76245,1.67609 z m 4.28631,-8.48277 c -0.23964,0.33947 -0.76661,0.76103 -1.43059,1.27687 l -0.73119,0.50337 c -0.40141,0.31116 -0.64366,0.60389 -0.73457,0.89194 -0.0716,0.22675 -0.1068,0.28675 -0.11305,0.74804 l -0.001,0.11714 -2.7919,0 0.008,-0.23558 c 0.0341,-0.9683 0.0581,-1.53791 0.46054,-2.00855 0.63142,-0.73921 2.02425,-1.63349 2.08338,-1.67141 0.19953,-0.14987 0.3678,-0.32052 0.4931,-0.5028512 0.29305,-0.40286 0.42277,-0.72 0.42277,-1.03168 0,-0.43247 -0.12868,-0.83246 -0.38318,-1.18856 -0.24459,-0.34363 -0.7093,-0.51766 -1.38136,-0.51766 -0.66658,0 -1.12296,0.21091 -1.39595,0.64363 -0.2808,0.44493 -0.42277,0.9122 -0.42277,1.3896 l 0,0.1187 -2.8786403,0 0.005,-0.1239 c 0.0742,-1.75816 0.70358,-3.02412 1.86978,-3.76282 0.73275,-0.47038 1.6444503,-0.70882 2.7082803,-0.70882 1.39256,0 2.56814,0.3374 3.49365,1.00285 0.93775,0.67427 1.4134,1.68413 1.4134,3.00152 0,0.73688 -0.2334,1.4290812 -0.69394,2.0581712 z"
     style="fill:#030104" /></svg>